<?xml version="1.0" standalone="no"?><!DOCTYPE svg PUBLIC "-//W3C//DTD SVG 1.1//EN" "http://www.w3.org/Graphics/SVG/1.1/DTD/svg11.dtd"><svg t="1609901949491" class="icon" viewBox="0 0 1024 1024" version="1.1" xmlns="http://www.w3.org/2000/svg" p-id="1075" xmlns:xlink="http://www.w3.org/1999/xlink" width="200" height="200"><defs><style type="text/css"></style></defs><path d="M133.12 1024c-13.653333 0-27.306667-6.826667-37.546667-17.066667-10.24-10.24-13.653333-23.893333-13.653333-37.546666v-266.24c-3.413333-20.48 6.826667-40.96 23.893333-51.2 17.066667-10.24 37.546667-10.24 58.026667 0 17.066667 10.24 27.306667 30.72 23.893333 51.2v266.24c0 13.653333-6.826667 27.306667-13.653333 37.546666-13.653333 10.24-27.306667 17.066667-40.96 17.066667zM392.533333 1024c-13.653333 0-27.306667-6.826667-37.546666-17.066667-10.24-10.24-13.653333-23.893333-13.653334-37.546666V546.133333c3.413333-27.306667 23.893333-44.373333 51.2-44.373333s47.786667 20.48 51.2 44.373333v423.253334c0 13.653333-6.826667 27.306667-13.653333 37.546666-10.24 10.24-23.893333 17.066667-37.546667 17.066667zM651.946667 1024c-13.653333 0-27.306667-6.826667-37.546667-17.066667-10.24-10.24-13.653333-23.893333-13.653333-37.546666V785.066667c3.413333-27.306667 23.893333-44.373333 51.2-44.373334s47.786667 20.48 51.2 44.373334v187.733333c0 13.653333-6.826667 27.306667-13.653334 37.546667-10.24 6.826667-23.893333 13.653333-37.546666 13.653333zM907.946667 1024c-13.653333 0-27.306667-6.826667-37.546667-17.066667-10.24-10.24-13.653333-23.893333-13.653333-37.546666v-341.333334c-3.413333-20.48 6.826667-40.96 23.893333-51.2 17.066667-10.24 37.546667-10.24 54.613333 0s27.306667 30.72 23.893334 51.2v348.16c0 27.306667-23.893333 47.786667-51.2 47.786667z" fill="#3366CC" p-id="1076"></path><path d="M955.733333 0h-197.973333c-27.306667 3.413333-44.373333 23.893333-44.373333 51.2s20.48 47.786667 44.373333 51.2h78.506667l-191.146667 160.426667-170.666667-139.946667c-20.48-13.653333-44.373333-13.653333-64.853333 0L37.546667 409.6c-23.893333 17.066667-30.72 47.786667-13.653334 71.68 10.24 17.066667 27.306667 23.893333 44.373334 23.893333 13.653333 0 23.893333-3.413333 34.133333-10.24l341.333333-262.826666 170.666667 139.946666c20.48 17.066667 47.786667 17.066667 64.853333 0l221.866667-187.733333v64.853333c0 27.306667 23.893333 51.2 51.2 51.2s51.2-23.893333 51.2-51.2V51.2C1006.933333 23.893333 986.453333 0 955.733333 0z" fill="#F4A914" p-id="1077"></path></svg>