<?xml version="1.0" standalone="no"?><!DOCTYPE svg PUBLIC "-//W3C//DTD SVG 1.1//EN" "http://www.w3.org/Graphics/SVG/1.1/DTD/svg11.dtd"><svg t="1609901987227" class="icon" viewBox="0 0 1027 1024" version="1.1" xmlns="http://www.w3.org/2000/svg" p-id="1212" xmlns:xlink="http://www.w3.org/1999/xlink" width="200.5859375" height="200"><defs><style type="text/css"></style></defs><path d="M706.56 252.586667c-3.413333-17.066667-6.826667-30.72-13.653333-47.786667-20.48-44.373333-51.2-81.92-92.16-109.226667-27.306667-17.066667-58.026667-30.72-88.746667-37.546666-17.066667-3.413333-34.133333-3.413333-51.2-3.413334s-34.133333 3.413333-51.2 3.413334c-17.066667 3.413333-30.72 6.826667-47.786667 13.653333-44.373333 20.48-81.92 51.2-109.226666 92.16-20.48 27.306667-30.72 58.026667-37.546667 88.746667-6.826667 34.133333-6.826667 68.266667 0 102.4 3.413333 17.066667 6.826667 30.72 13.653333 47.786666 20.48 44.373333 51.2 81.92 92.16 109.226667 27.306667 17.066667 58.026667 30.72 88.746667 37.546667 17.066667 3.413333 34.133333 3.413333 51.2 3.413333s34.133333-3.413333 51.2-3.413333c17.066667-3.413333 30.72-6.826667 47.786667-13.653334 44.373333-20.48 81.92-51.2 109.226666-92.16 17.066667-27.306667 30.72-58.026667 37.546667-88.746666 6.826667-34.133333 6.826667-68.266667 0-102.4z m-81.92 85.333333l-10.24 30.72c-13.653333 30.72-34.133333 54.613333-61.44 75.093333-17.066667 13.653333-37.546667 20.48-61.44 23.893334-10.24 3.413333-23.893333 3.413333-34.133333 3.413333-10.24 0-23.893333 0-34.133334-3.413333l-30.72-10.24c-30.72-13.653333-54.613333-34.133333-75.093333-61.44-10.24-17.066667-17.066667-37.546667-20.48-58.026667-3.413333-23.893333-3.413333-44.373333 0-68.266667 0-10.24 3.413333-20.48 10.24-30.72 13.653333-30.72 34.133333-54.613333 61.44-75.093333 17.066667-13.653333 37.546667-20.48 61.44-23.893333 6.826667-3.413333 17.066667-3.413333 30.72-3.413334 10.24 0 23.893333 0 34.133333 3.413334l30.72 10.24c30.72 13.653333 54.613333 34.133333 75.093334 61.44 13.653333 17.066667 20.48 37.546667 23.893333 61.44 3.413333 17.066667 3.413333 40.96 0 64.853333z" fill="#3366CC" p-id="1213"></path><path d="M877.226667 552.96c-23.893333 0-40.96-17.066667-40.96-40.96s17.066667-44.373333 40.96-44.373333h105.813333c23.893333 0 40.96 17.066667 40.96 40.96s-17.066667 44.373333-40.96 44.373333h-105.813333zM822.613333 395.946667c-23.893333 0-40.96-17.066667-40.96-40.96s17.066667-44.373333 40.96-44.373334h160.426667c23.893333 0 40.96 17.066667 40.96 40.96s-17.066667 44.373333-40.96 44.373334h-160.426667zM822.613333 238.933333c-20.48 0-37.546667-17.066667-37.546666-37.546666 0-23.893333 17.066667-44.373333 40.96-44.373334h160.426666c23.893333 0 40.96 17.066667 40.96 40.96-3.413333 23.893333-20.48 40.96-44.373333 40.96h-160.426667z" fill="#F4A914" p-id="1214"></path><path d="M918.186667 877.226667c-3.413333-40.96-13.653333-81.92-30.72-119.466667-27.306667-54.613333-68.266667-102.4-119.466667-133.12-34.133333-20.48-71.68-37.546667-112.64-44.373333-20.48-3.413333-40.96-6.826667-64.853333-6.826667H327.68c-170.666667 0-314.026667 133.12-327.68 303.786667v51.2c0 23.893333 17.066667 40.96 40.96 40.96h836.266667c23.893333 0 40.96-17.066667 40.96-40.96v-51.2z m-95.573334 10.24H95.573333l-10.24-10.24c3.413333-30.72 13.653333-58.026667 27.306667-85.333334 20.48-40.96 51.2-75.093333 88.746667-95.573333 23.893333-17.066667 54.613333-27.306667 81.92-30.72 13.653333-3.413333 30.72-3.413333 47.786666-3.413333h262.826667c17.066667 0 30.72 0 47.786667 3.413333 13.653333 3.413333 30.72 6.826667 44.373333 13.653333 40.96 17.066667 78.506667 44.373333 105.813333 78.506667 27.306667 34.133333 44.373333 78.506667 51.2 122.88l-20.48 6.826667z" fill="#3366CC" p-id="1215"></path></svg>