<?xml version="1.0" standalone="no"?><!DOCTYPE svg PUBLIC "-//W3C//DTD SVG 1.1//EN" "http://www.w3.org/Graphics/SVG/1.1/DTD/svg11.dtd"><svg t="1609904156188" class="icon" viewBox="0 0 1024 1024" version="1.1" xmlns="http://www.w3.org/2000/svg" p-id="1762" xmlns:xlink="http://www.w3.org/1999/xlink" width="200" height="200"><defs><style type="text/css"></style></defs><path d="M368.64 34.133333H112.64C68.266667 34.133333 34.133333 68.266667 34.133333 112.64v256c0 23.893333 17.066667 40.96 40.96 40.96s40.96-17.066667 40.96-40.96V116.053333h252.586667c23.893333 0 40.96-17.066667 40.96-40.96S389.12 34.133333 368.64 34.133333zM911.36 34.133333h-256c-23.893333 0-40.96 17.066667-40.96 40.96s17.066667 40.96 40.96 40.96h252.586667v252.586667c0 23.893333 17.066667 40.96 40.96 40.96s40.96-17.066667 40.96-40.96V112.64C989.866667 68.266667 955.733333 34.133333 911.36 34.133333zM368.64 907.946667H116.053333v-252.586667c0-23.893333-17.066667-40.96-40.96-40.96S34.133333 634.88 34.133333 655.36v256C34.133333 955.733333 68.266667 989.866667 112.64 989.866667h256c23.893333 0 40.96-17.066667 40.96-40.96s-20.48-40.96-40.96-40.96zM948.906667 617.813333c-23.893333 0-40.96 17.066667-40.96 40.96v252.586667h-252.586667c-23.893333 0-40.96 17.066667-40.96 40.96s17.066667 40.96 40.96 40.96h256c40.96 0 78.506667-34.133333 78.506667-78.506667v-256c0-23.893333-17.066667-40.96-40.96-40.96z" fill="#3366CC" p-id="1763"></path><path d="M416.426667 488.106667L307.2 344.746667c-13.653333-17.066667-34.133333-20.48-51.2-6.826667-17.066667 13.653333-20.48 34.133333-6.826667 51.2L337.92 512l-95.573333 126.293333c-13.653333 17.066667-10.24 37.546667 6.826666 51.2 6.826667 3.413333 13.653333 6.826667 20.48 6.826667 10.24 0 23.893333-6.826667 30.72-13.653333l112.64-146.773334c10.24-17.066667 10.24-34.133333 3.413334-47.786666z" fill="#F4A914" p-id="1764"></path><path d="M597.333333 488.106667L488.106667 341.333333c-13.653333-17.066667-34.133333-20.48-51.2-6.826666-17.066667 13.653333-20.48 34.133333-6.826667 51.2l92.16 122.88-95.573333 126.293333c-13.653333 17.066667-10.24 37.546667 6.826666 51.2 6.826667 3.413333 13.653333 6.826667 20.48 6.826667 10.24 0 23.893333-6.826667 30.72-13.653334l112.64-146.773333c10.24-13.653333 10.24-30.72 0-44.373333z" fill="#F4A914" p-id="1765"></path><path d="M778.24 488.106667L669.013333 341.333333c-13.653333-17.066667-34.133333-20.48-51.2-6.826666-17.066667 13.653333-20.48 34.133333-6.826666 51.2l92.16 122.88-95.573334 126.293333c-6.826667 6.826667-6.826667 17.066667-6.826666 27.306667 0 10.24 6.826667 17.066667 13.653333 23.893333 6.826667 3.413333 13.653333 6.826667 23.893333 6.826667 10.24 0 23.893333-6.826667 30.72-13.653334l112.64-146.773333c6.826667-13.653333 6.826667-30.72-3.413333-44.373333z" fill="#F4A914" p-id="1766"></path></svg>