<?xml version="1.0" standalone="no"?><!DOCTYPE svg PUBLIC "-//W3C//DTD SVG 1.1//EN" "http://www.w3.org/Graphics/SVG/1.1/DTD/svg11.dtd"><svg t="1609904120639" class="icon" viewBox="0 0 1024 1024" version="1.1" xmlns="http://www.w3.org/2000/svg" p-id="1350" xmlns:xlink="http://www.w3.org/1999/xlink" width="200" height="200"><defs><style type="text/css"></style></defs><path d="M474.453333 13.653333C211.626667 13.653333 0 225.28 0 488.106667s211.626667 474.453333 477.866667 474.453333c37.546667 0 75.093333-3.413333 112.64-13.653333l30.72-6.826667c10.24-3.413333 20.48-10.24 27.306666-20.48 6.826667-10.24 6.826667-23.893333 3.413334-34.133333-6.826667-23.893333-30.72-37.546667-54.613334-30.72l-27.306666 6.826666h-3.413334c-27.306667 6.826667-58.026667 10.24-88.746666 10.24-211.626667 0-385.706667-174.08-385.706667-385.706666S262.826667 102.4 474.453333 102.4s385.706667 174.08 385.706667 385.706667c0 23.893333-3.413333 51.2-6.826667 75.093333l-6.826666 17.066667c-3.413333 10.24 0 23.893333 6.826666 34.133333 6.826667 10.24 17.066667 17.066667 30.72 17.066667 20.48 3.413333 40.96-6.826667 47.786667-23.893334 0-3.413333 3.413333-6.826667 3.413333-10.24l3.413334-17.066666c6.826667-30.72 10.24-61.44 10.24-92.16C948.906667 225.28 737.28 13.653333 474.453333 13.653333z" fill="#3366CC" p-id="1351"></path><path d="M471.04 266.24c-58.026667 0-112.64 23.893333-153.6 68.266667C273.066667 375.466667 252.586667 430.08 252.586667 491.52s23.893333 112.64 68.266666 153.6c40.96 40.96 95.573333 61.44 153.6 61.44h3.413334c17.066667 0 30.72-3.413333 47.786666-6.826667l10.24-3.413333-23.893333-68.266667h-6.826667c-6.826667 0-17.066667 3.413333-23.893333 3.413334-40.96 0-78.506667-13.653333-105.813333-40.96-27.306667-27.306667-44.373333-64.853333-44.373334-105.813334 0-40.96 13.653333-78.506667 40.96-105.813333 27.306667-27.306667 64.853333-44.373333 105.813334-44.373333 81.92 0 150.186667 64.853333 153.6 146.773333v17.066667l68.266666 23.893333V512c0-10.24 3.413333-20.48 0-30.72-6.826667-119.466667-109.226667-218.453333-228.693333-215.04z" fill="#3366CC" p-id="1352"></path><path d="M593.92 549.546667l413.013333 146.773333c13.653333 6.826667 20.48 20.48 17.066667 34.133333-3.413333 6.826667-6.826667 10.24-13.653333 13.653334l-157.013334 68.266666c-13.653333 6.826667-20.48 13.653333-27.306666 27.306667l-68.266667 157.013333c-6.826667 13.653333-20.48 20.48-34.133333 13.653334-6.826667-3.413333-13.653333-10.24-13.653334-17.066667L559.786667 580.266667c-3.413333-6.826667-3.413333-13.653333 0-20.48 3.413333-6.826667 6.826667-10.24 13.653333-13.653334 6.826667 0 13.653333 0 20.48 3.413334z m61.44 92.16l81.92 228.693333 23.893333-61.44c10.24-27.306667 34.133333-47.786667 61.44-61.44l61.44-27.306667-228.693333-78.506666z m0 0" fill="#F4A914" p-id="1353"></path></svg>