<?xml version="1.0" encoding="utf-8"?>
<svg version="1.1" xmlns:xlink="http://www.w3.org/1999/xlink" width="19px" height="16px" xmlns="http://www.w3.org/2000/svg">
  <g transform="matrix(1 0 0 1 -493 -182 )">
    <path d="M 15.8580877931449 8.78409090909091  C 16.010422930447 8.84469696969697  16.086590499098 8.95454545454545  16.086590499098 9.11363636363636  L 16.086590499098 12.7272727272727  C 16.086590499098 13.6287878787879  15.7647825215474 14.3996212121212  15.1211665664462 15.0397727272727  C 14.477550611345 15.6799242424242  13.7025456003207 16  12.7961515333734 16  L 3.29043896572459 16  C 2.38404489877731 16  1.60903988775306 15.6799242424242  0.965423932651834 15.0397727272727  C 0.321807977550611 14.3996212121212  0 13.6287878787879  0 12.7272727272727  L 0 3.27272727272727  C 0 2.37121212121212  0.321807977550611 1.60037878787879  0.965423932651834 0.960227272727273  C 1.60903988775306 0.320075757575756  2.38404489877731 0  3.29043896572459 0  L 12.7961515333734 0  C 13.2760072158749 0  13.7215874924835 0.0946969696969688  14.132892363199 0.284090909090908  C 14.2471437161756 0.337121212121211  14.3156945279615 0.424242424242424  14.3385447985568 0.545454545454545  C 14.3613950691521 0.674242424242424  14.3271196632592 0.784090909090908  14.2357185808779 0.875  L 13.6758869512928 1.43181818181818  C 13.5997193826418 1.50757575757576  13.5121266786931 1.54545454545454  13.4131088394468 1.54545454545454  C 13.3902585688515 1.54545454545454  13.3559831629585 1.53787878787879  13.3102826217679 1.52272727272727  C 13.1350972138705 1.47727272727273  12.9637201844057 1.45454545454546  12.7961515333734 1.45454545454546  L 3.29043896572459 1.45454545454546  C 2.78773301262778 1.45454545454546  2.35738624974945 1.63257575757576  1.9993986770896 1.98863636363636  C 1.64141110442975 2.34469696969697  1.46241731809982 2.77272727272727  1.46241731809982 3.27272727272727  L 1.46241731809982 12.7272727272727  C 1.46241731809982 13.2272727272727  1.64141110442975 13.655303030303  1.9993986770896 14.0113636363636  C 2.35738624974945 14.3674242424242  2.78773301262778 14.5454545454545  3.29043896572459 14.5454545454545  L 12.7961515333734 14.5454545454545  C 13.2988574864702 14.5454545454545  13.7292042493486 14.3674242424242  14.0871918220084 14.0113636363636  C 14.4451793946683 13.655303030303  14.6241731809982 13.2272727272727  14.6241731809982 12.7272727272727  L 14.6241731809982 9.84090909090909  C 14.6241731809982 9.74242424242424  14.6584485868912 9.65909090909091  14.7269993986771 9.59090909090909  L 15.458208057727 8.86363636363636  C 15.534375626378 8.78787878787879  15.6219683303267 8.75  15.7209861695731 8.75  C 15.7666867107637 8.75  15.8123872519543 8.76136363636364  15.8580877931449 8.78409090909091  Z M 19 2.90909090909091  C 19 3.15909090909091  18.9085989176188 3.375  18.7257967528563 3.55681818181818  L 9.42573662056524 12.8068181818182  C 9.24293445580277 12.9886363636364  9.02585688514733 13.0795454545455  8.77450390859892 13.0795454545455  C 8.52315093205051 13.0795454545455  8.30607336139507 12.9886363636364  8.12327119663259 12.8068181818182  L 3.21046301864101 7.92045454545455  C 3.02766085387853 7.73863636363636  2.93625977149729 7.52272727272727  2.93625977149729 7.27272727272727  C 2.93625977149729 7.02272727272727  3.02766085387853 6.80681818181818  3.21046301864101 6.625  L 4.46722790138304 5.375  C 4.65003006614552 5.19318181818182  4.86710763680096 5.10227272727273  5.11846061334937 5.10227272727273  C 5.36981358989778 5.10227272727273  5.58689116055322 5.19318181818182  5.76969332531569 5.375  L 8.77450390859892 8.36363636363636  L 16.1665664461816 1.01136363636364  C 16.3493686109441 0.829545454545455  16.5664461815995 0.738636363636363  16.8177991581479 0.738636363636363  C 17.0691521346963 0.738636363636363  17.2862297053518 0.829545454545455  17.4690318701143 1.01136363636364  L 18.7257967528563 2.26136363636364  C 18.9085989176188 2.44318181818182  19 2.65909090909091  19 2.90909090909091  Z " fill-rule="nonzero" fill="#999999" stroke="none" transform="matrix(1 0 0 1 493 182 )" />
  </g>
</svg>