<?xml version="1.0" standalone="no"?><!DOCTYPE svg PUBLIC "-//W3C//DTD SVG 1.1//EN" "http://www.w3.org/Graphics/SVG/1.1/DTD/svg11.dtd"><svg t="1609904127806" class="icon" viewBox="0 0 1024 1024" version="1.1" xmlns="http://www.w3.org/2000/svg" p-id="1488" xmlns:xlink="http://www.w3.org/1999/xlink" width="200" height="200"><defs><style type="text/css"></style></defs><path d="M40.96 552.96C20.48 552.96 0 535.893333 0 512 0 228.693333 228.693333 0 512 0c167.253333 0 320.853333 78.506667 416.426667 215.04l3.413333 3.413333c3.413333 0 6.826667-3.413333 6.826667-6.826666V122.88c0-23.893333 20.48-40.96 40.96-40.96 23.893333 0 44.373333 20.48 44.373333 40.96v194.56c0 23.893333-20.48 40.96-40.96 40.96h-211.626667c-23.893333 0-40.96-20.48-40.96-40.96 0-23.893333 20.48-40.96 40.96-40.96h85.333334c3.413333 0 3.413333 0 6.826666-3.413333v-6.826667C778.24 150.186667 648.533333 85.333333 512 85.333333 276.48 85.333333 85.333333 276.48 85.333333 512c0 23.893333-20.48 40.96-44.373333 40.96zM512 1024c-163.84 0-317.44-78.506667-416.426667-215.04l-3.413333-3.413333c-3.413333 0-6.826667 3.413333-6.826667 6.826666v88.746667c0 23.893333-20.48 40.96-40.96 40.96S0 921.6 0 901.12v-194.56c0-23.893333 20.48-40.96 40.96-40.96h211.626667c23.893333 0 40.96 20.48 40.96 40.96 0 23.893333-20.48 40.96-40.96 40.96H167.253333c-3.413333 0-3.413333 0-6.826666 3.413333v6.826667c78.506667 112.64 208.213333 180.906667 348.16 180.906667 235.52 0 426.666667-191.146667 426.666666-426.666667 0-23.893333 20.48-40.96 40.96-40.96 23.893333 0 40.96 20.48 40.96 40.96 6.826667 283.306667-221.866667 512-505.173333 512z" fill="#3366CC" p-id="1489"></path><path d="M699.733333 296.96c-13.653333-13.653333-37.546667-13.653333-51.2 0l-136.533333 136.533333-136.533333-136.533333c-6.826667-6.826667-17.066667-10.24-27.306667-10.24-10.24 0-20.48 3.413333-27.306667 10.24-3.413333 6.826667-6.826667 13.653333-6.826666 23.893333 0 10.24 3.413333 20.48 10.24 27.306667l98.986666 98.986667H375.466667c-20.48 0-37.546667 17.066667-37.546667 37.546666 0 20.48 17.066667 37.546667 37.546667 37.546667h98.986666V580.266667H375.466667c-20.48 0-37.546667 17.066667-37.546667 37.546666 0 20.48 17.066667 37.546667 37.546667 37.546667h98.986666v116.053333c0 20.48 17.066667 37.546667 37.546667 37.546667 20.48 0 37.546667-17.066667 37.546667-37.546667v-116.053333H648.533333c20.48 0 37.546667-17.066667 37.546667-37.546667 0-20.48-17.066667-37.546667-37.546667-37.546666h-98.986666v-58.026667H648.533333c20.48 0 37.546667-17.066667 37.546667-37.546667 0-20.48-17.066667-37.546667-37.546667-37.546666h-47.786666l98.986666-98.986667c13.653333-13.653333 13.653333-37.546667 0-51.2z m0 0" fill="#F4A914" p-id="1490"></path></svg>